<svg aria-hidden="true" style="width:0;height:0;position:absolute;overflow:hidden" xmlns="http://www.w3.org/2000/svg"><defs><symbol id="icon-logo" viewBox="0 0 41 32"><path fill="#ffe550" style="fill:var(--color1,#ffe550)" d="M14.142 6.456c1.011-1.982 3.836-1.982 4.847 0l1.279 2.51a2.724 2.724 0 0 0 1.997 1.453l2.772.441c2.196.35 3.07 3.049 1.497 4.625l-1.978 1.983a2.733 2.733 0 0 0-.764 2.356l.437 2.773c.347 2.2-1.94 3.868-3.921 2.859l-2.51-1.278a2.718 2.718 0 0 0-2.465 0l-2.51 1.278c-1.981 1.009-4.267-.659-3.921-2.859l.437-2.773a2.734 2.734 0 0 0-.764-2.356l-1.978-1.983c-1.572-1.576-.699-4.276 1.497-4.625l2.772-.441a2.72 2.72 0 0 0 1.996-1.453l1.279-2.51z"/><path fill="#2c2c2c" style="fill:var(--color2,#2c2c2c)" d="m1.116 20.357-.021.005a31 31 0 0 1-.011.9c-.003.524-.004.868-.002 1.032 0 .157-.004.285-.01.384l.001.336a2.28 2.28 0 0 1-.019.296l-.018.206c-.014.13-.042.201-.084.211-.092.022-.235-.049-.431-.212-.197-.17-.31-.319-.341-.447s-.038-1.06-.024-2.798c.021-1.74-.025-2.884-.14-3.432a.421.421 0 0 1 .014-.273c.035-.165.219-.321.55-.467.338-.147.843-.3 1.514-.459.678-.161 1.216-.251 1.614-.27.405-.021.623.032.653.159.02.085-.026.159-.137.223s-.211.117-.298.16a22.45 22.45 0 0 1-.348.138c-.145.049-.279.096-.403.14-.125.037-.288.091-.488.16-.193.068-.371.133-.536.194-.166.054-.39.133-.671.237s-.463.17-.546.197c.012.02.023.051.033.093.079.333.122 1.13.129 2.392.443-.082.91-.204 1.402-.365.498-.163.804-.258.917-.284.268-.064.416-.039.443.075.052.22-.212.476-.791.77a8.607 8.607 0 0 1-1.95.697zM8.033 18.406a2.013 2.013 0 0 0-.277-.652c-.13-.201-.28-.334-.452-.398-.456.25-.786.728-.992 1.435-.2.698-.236 1.32-.107 1.865s.343.853.644.924c.485-.22.834-.668 1.047-1.347.218-.687.264-1.296.139-1.827zm-2.764.755c.117-.611.331-1.14.643-1.588.317-.456.684-.734 1.101-.833.424-.1.82-.003 1.187.291.366.287.61.689.733 1.206.12.51.121 1.063.001 1.66a3.784 3.784 0 0 1-.714 1.571c-.349.449-.767.731-1.254.847-.36.085-.7-.01-1.019-.286s-.538-.669-.659-1.179c-.122-.517-.128-1.08-.019-1.689zM12.833 17.269a2.013 2.013 0 0 0-.277-.652c-.13-.201-.28-.334-.452-.398-.456.25-.786.728-.992 1.435-.2.698-.236 1.32-.107 1.865s.343.853.644.924c.485-.22.834-.669 1.047-1.347.218-.687.264-1.296.139-1.827zm-2.763.756c.117-.611.331-1.14.643-1.588.317-.456.684-.734 1.101-.833.424-.1.82-.003 1.188.291.366.287.61.689.733 1.206.12.51.121 1.063.001 1.66a3.784 3.784 0 0 1-.714 1.571c-.349.449-.767.731-1.254.846-.36.085-.7-.01-1.019-.286s-.538-.669-.659-1.179c-.122-.517-.129-1.08-.019-1.689zM17.839 11.037c.113-.027.276.047.488.221.218.165.349.34.392.524s.079.729.107 1.635c.026.899.031 1.836.016 2.811-.02 2.188-.111 3.301-.273 3.34-.099.023-.223-.011-.371-.103-.143-.101-.226-.197-.247-.289s-.041-.282-.056-.57c-.525.872-1.045 1.369-1.561 1.491-.311.074-.627-.001-.948-.224-.314-.225-.507-.489-.579-.794-.104-.439-.11-.987-.019-1.644.096-.666.308-1.299.636-1.9s.742-.961 1.244-1.08.922.099 1.262.655c.005-1.586-.077-2.819-.248-3.699-.05-.212.002-.337.158-.374zm.068 5.491c-.09-.382-.234-.689-.43-.919-.189-.232-.375-.326-.559-.283-.304.072-.57.333-.799.784s-.381.943-.457 1.476c-.07.525-.063.965.021 1.319.03.127.1.219.211.275s.229.069.356.039c.275-.065.599-.351.972-.858.38-.509.612-1.057.696-1.645l.002-.135-.013-.053zM24.67 15.892c.137.581-.009 1.131-.438 1.651-.431.513-.985.85-1.663 1.01-.671.159-1.266.117-1.786-.127-.522-.25-.819-.531-.893-.843-.05-.212-.012-.334.115-.364.113-.027.376.091.788.352.156.09.352.163.589.22.244.054.486.053.726-.004a2.374 2.374 0 0 0 1.223-.693c.328-.347.457-.669.387-.966-.045-.191-.23-.405-.555-.643s-.673-.45-1.046-.638c-.367-.197-.714-.418-1.04-.662s-.51-.455-.552-.632-.051-.373-.027-.588c.024-.215.067-.379.13-.491.203-.37.565-.751 1.084-1.143.526-.394.987-.637 1.382-.731.205-.049.394-.022.567.079s.277.226.312.375c.017.071-.044.145-.182.223s-.351.188-.638.33a5.188 5.188 0 0 0-.739.422c-.739.504-1.074.901-1.005 1.191.037.156.553.493 1.548 1.013a5.31 5.31 0 0 1 1.087.763c.347.299.555.598.625.895zM27.104 16.426c.032.135.125.183.281.147.268-.064.576-.215.922-.454.352-.248.549-.377.591-.387.127-.03.207.022.238.157.049.205-.107.493-.468.862-.353.368-.703.593-1.049.674-.339.08-.643.055-.913-.076-.271-.138-.43-.306-.477-.504s-.064-.46-.051-.784c.011-.332.035-.767.072-1.307.042-.548.069-1 .083-1.354-.314.156-.527.248-.64.275s-.239-.003-.379-.09c-.134-.095-.214-.196-.239-.302-.04-.17.38-.441 1.262-.815a7.73 7.73 0 0 0-.178-1.607c-.05-.212-.005-.335.137-.369.12-.028.287.014.5.128.212.107.34.256.385.447s.065.542.058 1.052c.394-.131.711-.225.952-.281.424-.1.657-.058.701.126.025.106-.071.222-.287.348-.209.124-.664.348-1.363.67-.016.594-.052 1.28-.107 2.055-.057.769-.067 1.231-.03 1.387zM31.839 10.864c.318-.075.649.018.995.28.344.255.547.514.608.776.06.255.034.538-.079.849.11.086.174.168.192.246.047.198.081.549.103 1.052.029.502.051.829.065.983a3.374 3.374 0 0 1 .05.638c.014.184-.029.287-.128.311-.127.03-.259-.055-.396-.254a3.224 3.224 0 0 1-.344-.838c-.44.949-.928 1.487-1.464 1.614-.325.077-.679.015-1.062-.186-.378-.21-.602-.463-.672-.761-.1-.425-.069-.986.095-1.682.162-.704.432-1.358.811-1.964s.787-.96 1.225-1.064zm.929 1.754c-.156-.659-.364-.957-.626-.895-.275.065-.55.34-.823.823-.275.476-.481.992-.619 1.548s-.171.979-.103 1.269a.37.37 0 0 0 .219.262.603.603 0 0 0 .375.023c.332-.079.654-.39.965-.935.31-.552.469-1.169.48-1.852-.004-.111.041-.189.135-.234l-.002-.011z"/><path fill="#bbf330" style="fill:var(--color3,#bbf330)" d="M30.759 19.973a.917.917 0 0 0-.642.602c-1.906 5.65-7.244 9.719-13.535 9.719a14.228 14.228 0 0 1-9.841-3.935.91.91 0 0 0-.845-.232c-.639.158-.88.934-.406 1.392a15.92 15.92 0 0 0 11.092 4.48c7.078 0 13.081-4.605 15.182-10.986.206-.626-.368-1.199-1.006-1.041zM1.867 14.15a.906.906 0 0 0 .665-.725c1.211-6.664 7.039-11.72 14.051-11.72 4.559 0 8.617 2.137 11.232 5.464a.901.901 0 0 0 .923.328c.584-.144.847-.825.478-1.301-2.924-3.771-7.495-6.198-12.633-6.198C8.702-.002 2.152 5.709.84 13.223c-.104.592.445 1.07 1.027.926zM40.615 5.331c-3.777 7.241-5.435 2.465-10.752 5.271.532-8.406 6.163-3.291 10.752-5.271z"/></symbol></defs></svg>